<svg version="1.1" xmlns="http://www.w3.org/2000/svg" xmlns:xlink="http://www.w3.org/1999/xlink" width="785" height="411"><defs/><g><g transform="translate(-118,-102) scale(1,1)"><rect fill="#C0C0C0" stroke="none" x="135" y="119" width="135.91357421875" height="135" opacity="0.2"/></g><g transform="translate(-118,-102) scale(1,1)"><rect fill="#ffffff" stroke="none" x="128" y="112" width="135.91357421875" height="135"/></g><g transform="translate(-118,-102) scale(1,1)"><path fill="none" stroke="#000000" d="M 128 112 L 263.91357421875 112 L 263.91357421875 247 L 128 247 L 128 112 Z Z" stroke-miterlimit="10"/></g><g transform="translate(-118,-102) scale(1,1)"><path fill="none" stroke="#000000" d="M 128 135 L 263.91357421875 135" stroke-miterlimit="10"/></g><g transform="translate(-118,-102) scale(1,1)"><path fill="none" stroke="#000000" d="M 156.05908203125 135 L 156.05908203125 247" stroke-miterlimit="10"/></g><g transform="translate(-118,-102) scale(1,1)"><path fill="none" stroke="#000000" d="M 254.91357421875 135 L 254.91357421875 247" stroke-miterlimit="10"/></g><g transform="translate(-118,-102) scale(1,1)"><g><path fill="none" stroke="none"/><text fill="#000000" stroke="none" font-family="Arial" font-size="13px" font-style="normal" font-weight="bold" text-decoration="none" x="170.305908203125" y="129.5">Payment</text></g></g><g transform="translate(-118,-102) scale(1,1)"><g><path fill="none" stroke="none"/><text fill="#000000" stroke="none" font-family="Arial" font-size="13px" font-style="normal" font-weight="normal" text-decoration="none" x="133" y="153">PK</text></g></g><g transform="translate(-118,-102) scale(1,1)"><g><path fill="none" stroke="none"/><text fill="#000000" stroke="none" font-family="Arial" font-size="13px" font-style="normal" font-weight="normal" text-decoration="none" x="161.05908203125" y="153">id</text></g></g><g transform="translate(-118,-102) scale(1,1)"><g><path fill="none" stroke="none"/><text fill="#000000" stroke="none" font-family="Arial" font-size="13px" font-style="normal" font-weight="normal" text-decoration="none" x="259.91357421875" y="153"></text></g></g><g transform="translate(-118,-102) scale(1,1)"><g><path fill="none" stroke="none"/><text fill="#000000" stroke="none" font-family="Arial" font-size="13px" font-style="normal" font-weight="normal" text-decoration="none" x="133" y="168"></text></g></g><g transform="translate(-118,-102) scale(1,1)"><g><path fill="none" stroke="none"/><text fill="#000000" stroke="none" font-family="Arial" font-size="13px" font-style="normal" font-weight="normal" text-decoration="none" x="161.05908203125" y="168">datetime</text></g></g><g transform="translate(-118,-102) scale(1,1)"><g><path fill="none" stroke="none"/><text fill="#000000" stroke="none" font-family="Arial" font-size="13px" font-style="normal" font-weight="normal" text-decoration="none" x="259.91357421875" y="168"></text></g></g><g transform="translate(-118,-102) scale(1,1)"><g><path fill="none" stroke="none"/><text fill="#000000" stroke="none" font-family="Arial" font-size="13px" font-style="normal" font-weight="normal" text-decoration="none" x="133" y="183"></text></g></g><g transform="translate(-118,-102) scale(1,1)"><g><path fill="none" stroke="none"/><text fill="#000000" stroke="none" font-family="Arial" font-size="13px" font-style="normal" font-weight="normal" text-decoration="none" x="161.05908203125" y="183">terminal_id</text></g></g><g transform="translate(-118,-102) scale(1,1)"><g><path fill="none" stroke="none"/><text fill="#000000" stroke="none" font-family="Arial" font-size="13px" font-style="normal" font-weight="normal" text-decoration="none" x="259.91357421875" y="183"></text></g></g><g transform="translate(-118,-102) scale(1,1)"><g><path fill="none" stroke="none"/><text fill="#000000" stroke="none" font-family="Arial" font-size="13px" font-style="normal" font-weight="normal" text-decoration="none" x="133" y="198"></text></g></g><g transform="translate(-118,-102) scale(1,1)"><g><path fill="none" stroke="none"/><text fill="#000000" stroke="none" font-family="Arial" font-size="13px" font-style="normal" font-weight="normal" text-decoration="none" x="161.05908203125" y="198">transaction_id</text></g></g><g transform="translate(-118,-102) scale(1,1)"><g><path fill="none" stroke="none"/><text fill="#000000" stroke="none" font-family="Arial" font-size="13px" font-style="normal" font-weight="normal" text-decoration="none" x="259.91357421875" y="198"></text></g></g><g transform="translate(-118,-102) scale(1,1)"><g><path fill="none" stroke="none"/><text fill="#000000" stroke="none" font-family="Arial" font-size="13px" font-style="normal" font-weight="normal" text-decoration="none" x="133" y="213"></text></g></g><g transform="translate(-118,-102) scale(1,1)"><g><path fill="none" stroke="none"/><text fill="#000000" stroke="none" font-family="Arial" font-size="13px" font-style="normal" font-weight="normal" text-decoration="none" x="161.05908203125" y="213">partner_id</text></g></g><g transform="translate(-118,-102) scale(1,1)"><g><path fill="none" stroke="none"/><text fill="#000000" stroke="none" font-family="Arial" font-size="13px" font-style="normal" font-weight="normal" text-decoration="none" x="259.91357421875" y="213"></text></g></g><g transform="translate(-118,-102) scale(1,1)"><g><path fill="none" stroke="none"/><text fill="#000000" stroke="none" font-family="Arial" font-size="13px" font-style="normal" font-weight="normal" text-decoration="none" x="133" y="228"></text></g></g><g transform="translate(-118,-102) scale(1,1)"><g><path fill="none" stroke="none"/><text fill="#000000" stroke="none" font-family="Arial" font-size="13px" font-style="normal" font-weight="normal" text-decoration="none" x="161.05908203125" y="228">summ</text></g></g><g transform="translate(-118,-102) scale(1,1)"><g><path fill="none" stroke="none"/><text fill="#000000" stroke="none" font-family="Arial" font-size="13px" font-style="normal" font-weight="normal" text-decoration="none" x="259.91357421875" y="228"></text></g></g><g transform="translate(-118,-102) scale(1,1)"><rect fill="#C0C0C0" stroke="none" x="223" y="295" width="130.10546875" height="105" opacity="0.2"/></g><g transform="translate(-118,-102) scale(1,1)"><rect fill="#ffffff" stroke="none" x="216" y="288" width="130.10546875" height="105"/></g><g transform="translate(-118,-102) scale(1,1)"><path fill="none" stroke="#000000" d="M 216 288 L 346.10546875 288 L 346.10546875 393 L 216 393 L 216 288 Z Z" stroke-miterlimit="10"/></g><g transform="translate(-118,-102) scale(1,1)"><path fill="none" stroke="#000000" d="M 216 311 L 346.10546875 311" stroke-miterlimit="10"/></g><g transform="translate(-118,-102) scale(1,1)"><path fill="none" stroke="#000000" d="M 244.05908203125 311 L 244.05908203125 393" stroke-miterlimit="10"/></g><g transform="translate(-118,-102) scale(1,1)"><path fill="none" stroke="#000000" d="M 337.10546875 311 L 337.10546875 393" stroke-miterlimit="10"/></g><g transform="translate(-118,-102) scale(1,1)"><g><path fill="none" stroke="none"/><text fill="#000000" stroke="none" font-family="Arial" font-size="13px" font-style="normal" font-weight="bold" text-decoration="none" x="255.77001953125" y="305.5">Terminal</text></g></g><g transform="translate(-118,-102) scale(1,1)"><g><path fill="none" stroke="none"/><text fill="#000000" stroke="none" font-family="Arial" font-size="13px" font-style="normal" font-weight="normal" text-decoration="none" x="221" y="329">PK</text></g></g><g transform="translate(-118,-102) scale(1,1)"><g><path fill="none" stroke="none"/><text fill="#000000" stroke="none" font-family="Arial" font-size="13px" font-style="normal" font-weight="normal" text-decoration="none" x="249.05908203125" y="329">id</text></g></g><g transform="translate(-118,-102) scale(1,1)"><g><path fill="none" stroke="none"/><text fill="#000000" stroke="none" font-family="Arial" font-size="13px" font-style="normal" font-weight="normal" text-decoration="none" x="342.10546875" y="329"></text></g></g><g transform="translate(-118,-102) scale(1,1)"><g><path fill="none" stroke="none"/><text fill="#000000" stroke="none" font-family="Arial" font-size="13px" font-style="normal" font-weight="normal" text-decoration="none" x="221" y="344"></text></g></g><g transform="translate(-118,-102) scale(1,1)"><g><path fill="none" stroke="none"/><text fill="#000000" stroke="none" font-family="Arial" font-size="13px" font-style="normal" font-weight="normal" text-decoration="none" x="249.05908203125" y="344">configuration</text></g></g><g transform="translate(-118,-102) scale(1,1)"><g><path fill="none" stroke="none"/><text fill="#000000" stroke="none" font-family="Arial" font-size="13px" font-style="normal" font-weight="normal" text-decoration="none" x="342.10546875" y="344"></text></g></g><g transform="translate(-118,-102) scale(1,1)"><g><path fill="none" stroke="none"/><text fill="#000000" stroke="none" font-family="Arial" font-size="13px" font-style="normal" font-weight="normal" text-decoration="none" x="221" y="359"></text></g></g><g transform="translate(-118,-102) scale(1,1)"><g><path fill="none" stroke="none"/><text fill="#000000" stroke="none" font-family="Arial" font-size="13px" font-style="normal" font-weight="normal" text-decoration="none" x="249.05908203125" y="359">title</text></g></g><g transform="translate(-118,-102) scale(1,1)"><g><path fill="none" stroke="none"/><text fill="#000000" stroke="none" font-family="Arial" font-size="13px" font-style="normal" font-weight="normal" text-decoration="none" x="342.10546875" y="359"></text></g></g><g transform="translate(-118,-102) scale(1,1)"><g><path fill="none" stroke="none"/><text fill="#000000" stroke="none" font-family="Arial" font-size="13px" font-style="normal" font-weight="normal" text-decoration="none" x="221" y="374"></text></g></g><g transform="translate(-118,-102) scale(1,1)"><g><path fill="none" stroke="none"/><text fill="#000000" stroke="none" font-family="Arial" font-size="13px" font-style="normal" font-weight="normal" text-decoration="none" x="249.05908203125" y="374">comment</text></g></g><g transform="translate(-118,-102) scale(1,1)"><g><path fill="none" stroke="none"/><text fill="#000000" stroke="none" font-family="Arial" font-size="13px" font-style="normal" font-weight="normal" text-decoration="none" x="342.10546875" y="374"></text></g></g><g transform="translate(-118,-102) scale(1,1)"><g><path fill="none" stroke="none"/><text fill="#000000" stroke="none" font-family="Arial" font-size="13px" font-style="normal" font-weight="normal" text-decoration="none" x="221" y="389"></text></g></g><g transform="translate(-118,-102) scale(1,1)"><g><path fill="none" stroke="none"/><text fill="#000000" stroke="none" font-family="Arial" font-size="13px" font-style="normal" font-weight="normal" text-decoration="none" x="249.05908203125" y="389">pub_key</text></g></g><g transform="translate(-118,-102) scale(1,1)"><g><path fill="none" stroke="none"/><text fill="#000000" stroke="none" font-family="Arial" font-size="13px" font-style="normal" font-weight="normal" text-decoration="none" x="342.10546875" y="389"></text></g></g><g transform="translate(-118,-102) scale(1,1)"><rect fill="#C0C0C0" stroke="none" x="431" y="127" width="104.84814453125" height="75" opacity="0.2"/></g><g transform="translate(-118,-102) scale(1,1)"><rect fill="#ffffff" stroke="none" x="424" y="120" width="104.84814453125" height="75"/></g><g transform="translate(-118,-102) scale(1,1)"><path fill="none" stroke="#000000" d="M 424 120 L 528.84814453125 120 L 528.84814453125 195 L 424 195 L 424 120 Z Z" stroke-miterlimit="10"/></g><g transform="translate(-118,-102) scale(1,1)"><path fill="none" stroke="#000000" d="M 424 143 L 528.84814453125 143" stroke-miterlimit="10"/></g><g transform="translate(-118,-102) scale(1,1)"><path fill="none" stroke="#000000" d="M 452.05908203125 143 L 452.05908203125 195" stroke-miterlimit="10"/></g><g transform="translate(-118,-102) scale(1,1)"><path fill="none" stroke="#000000" d="M 519.84814453125 143 L 519.84814453125 195" stroke-miterlimit="10"/></g><g transform="translate(-118,-102) scale(1,1)"><g><path fill="none" stroke="none"/><text fill="#000000" stroke="none" font-family="Arial" font-size="13px" font-style="normal" font-weight="bold" text-decoration="none" x="455.108642578125" y="137.5">Partner</text></g></g><g transform="translate(-118,-102) scale(1,1)"><g><path fill="none" stroke="none"/><text fill="#000000" stroke="none" font-family="Arial" font-size="13px" font-style="normal" font-weight="normal" text-decoration="none" x="429" y="161">PK</text></g></g><g transform="translate(-118,-102) scale(1,1)"><g><path fill="none" stroke="none"/><text fill="#000000" stroke="none" font-family="Arial" font-size="13px" font-style="normal" font-weight="normal" text-decoration="none" x="457.05908203125" y="161">id</text></g></g><g transform="translate(-118,-102) scale(1,1)"><g><path fill="none" stroke="none"/><text fill="#000000" stroke="none" font-family="Arial" font-size="13px" font-style="normal" font-weight="normal" text-decoration="none" x="524.84814453125" y="161"></text></g></g><g transform="translate(-118,-102) scale(1,1)"><g><path fill="none" stroke="none"/><text fill="#000000" stroke="none" font-family="Arial" font-size="13px" font-style="normal" font-weight="normal" text-decoration="none" x="429" y="176"></text></g></g><g transform="translate(-118,-102) scale(1,1)"><g><path fill="none" stroke="none"/><text fill="#000000" stroke="none" font-family="Arial" font-size="13px" font-style="normal" font-weight="normal" text-decoration="none" x="457.05908203125" y="176">title</text></g></g><g transform="translate(-118,-102) scale(1,1)"><g><path fill="none" stroke="none"/><text fill="#000000" stroke="none" font-family="Arial" font-size="13px" font-style="normal" font-weight="normal" text-decoration="none" x="524.84814453125" y="176"></text></g></g><g transform="translate(-118,-102) scale(1,1)"><g><path fill="none" stroke="none"/><text fill="#000000" stroke="none" font-family="Arial" font-size="13px" font-style="normal" font-weight="normal" text-decoration="none" x="429" y="191"></text></g></g><g transform="translate(-118,-102) scale(1,1)"><g><path fill="none" stroke="none"/><text fill="#000000" stroke="none" font-family="Arial" font-size="13px" font-style="normal" font-weight="normal" text-decoration="none" x="457.05908203125" y="191">comment</text></g></g><g transform="translate(-118,-102) scale(1,1)"><g><path fill="none" stroke="none"/><text fill="#000000" stroke="none" font-family="Arial" font-size="13px" font-style="normal" font-weight="normal" text-decoration="none" x="524.84814453125" y="191"></text></g></g><g transform="translate(-118,-102) scale(1,1)"><rect fill="#C0C0C0" stroke="none" x="679" y="143" width="102.6708984375" height="90" opacity="0.2"/></g><g transform="translate(-118,-102) scale(1,1)"><rect fill="#ffffff" stroke="none" x="672" y="136" width="102.6708984375" height="90"/></g><g transform="translate(-118,-102) scale(1,1)"><path fill="none" stroke="#000000" d="M 672 136 L 774.6708984375 136 L 774.6708984375 226 L 672 226 L 672 136 Z Z" stroke-miterlimit="10"/></g><g transform="translate(-118,-102) scale(1,1)"><path fill="none" stroke="#000000" d="M 672 159 L 774.6708984375 159" stroke-miterlimit="10"/></g><g transform="translate(-118,-102) scale(1,1)"><path fill="none" stroke="#000000" d="M 700.05908203125 159 L 700.05908203125 226" stroke-miterlimit="10"/></g><g transform="translate(-118,-102) scale(1,1)"><path fill="none" stroke="#000000" d="M 763.51904296875 159 L 763.51904296875 226" stroke-miterlimit="10"/></g><g transform="translate(-118,-102) scale(1,1)"><g><path fill="none" stroke="none"/><text fill="#000000" stroke="none" font-family="Arial" font-size="13px" font-style="normal" font-weight="bold" text-decoration="none" x="705.996826171875" y="153.5">Credit</text></g></g><g transform="translate(-118,-102) scale(1,1)"><g><path fill="none" stroke="none"/><text fill="#000000" stroke="none" font-family="Arial" font-size="13px" font-style="normal" font-weight="normal" text-decoration="none" x="677" y="177">PK</text></g></g><g transform="translate(-118,-102) scale(1,1)"><g><path fill="none" stroke="none"/><text fill="#000000" stroke="none" font-family="Arial" font-size="13px" font-style="normal" font-weight="normal" text-decoration="none" x="705.05908203125" y="177">id</text></g></g><g transform="translate(-118,-102) scale(1,1)"><g><path fill="none" stroke="none"/><text fill="#000000" stroke="none" font-family="Arial" font-size="13px" font-style="normal" font-weight="normal" text-decoration="none" x="768.51904296875" y="177"></text></g></g><g transform="translate(-118,-102) scale(1,1)"><g><path fill="none" stroke="none"/><text fill="#000000" stroke="none" font-family="Arial" font-size="13px" font-style="normal" font-weight="normal" text-decoration="none" x="677" y="192"></text></g></g><g transform="translate(-118,-102) scale(1,1)"><g><path fill="none" stroke="none"/><text fill="#000000" stroke="none" font-family="Arial" font-size="13px" font-style="normal" font-weight="normal" text-decoration="none" x="705.05908203125" y="192">agent_id</text></g></g><g transform="translate(-118,-102) scale(1,1)"><g><path fill="none" stroke="none"/><text fill="#000000" stroke="none" font-family="Arial" font-size="13px" font-style="normal" font-weight="normal" text-decoration="none" x="768.51904296875" y="192"></text></g></g><g transform="translate(-118,-102) scale(1,1)"><g><path fill="none" stroke="none"/><text fill="#000000" stroke="none" font-family="Arial" font-size="13px" font-style="normal" font-weight="normal" text-decoration="none" x="677" y="207"></text></g></g><g transform="translate(-118,-102) scale(1,1)"><g><path fill="none" stroke="none"/><text fill="#000000" stroke="none" font-family="Arial" font-size="13px" font-style="normal" font-weight="normal" text-decoration="none" x="705.05908203125" y="207">datetime</text></g></g><g transform="translate(-118,-102) scale(1,1)"><g><path fill="none" stroke="none"/><text fill="#000000" stroke="none" font-family="Arial" font-size="13px" font-style="normal" font-weight="normal" text-decoration="none" x="768.51904296875" y="207"></text></g></g><g transform="translate(-118,-102) scale(1,1)"><g><path fill="none" stroke="none"/><text fill="#000000" stroke="none" font-family="Arial" font-size="13px" font-style="normal" font-weight="normal" text-decoration="none" x="677" y="222"></text></g></g><g transform="translate(-118,-102) scale(1,1)"><g><path fill="none" stroke="none"/><text fill="#000000" stroke="none" font-family="Arial" font-size="13px" font-style="normal" font-weight="normal" text-decoration="none" x="705.05908203125" y="222">summ</text></g></g><g transform="translate(-118,-102) scale(1,1)"><g><path fill="none" stroke="none"/><text fill="#000000" stroke="none" font-family="Arial" font-size="13px" font-style="normal" font-weight="normal" text-decoration="none" x="768.51904296875" y="222"></text></g></g><g transform="translate(-118,-102) scale(1,1)"><rect fill="#C0C0C0" stroke="none" x="679" y="263" width="102.6708984375" height="90" opacity="0.2"/></g><g transform="translate(-118,-102) scale(1,1)"><rect fill="#ffffff" stroke="none" x="672" y="256" width="102.6708984375" height="90"/></g><g transform="translate(-118,-102) scale(1,1)"><path fill="none" stroke="#000000" d="M 672 256 L 774.6708984375 256 L 774.6708984375 346 L 672 346 L 672 256 Z Z" stroke-miterlimit="10"/></g><g transform="translate(-118,-102) scale(1,1)"><path fill="none" stroke="#000000" d="M 672 279 L 774.6708984375 279" stroke-miterlimit="10"/></g><g transform="translate(-118,-102) scale(1,1)"><path fill="none" stroke="#000000" d="M 700.05908203125 279 L 700.05908203125 346" stroke-miterlimit="10"/></g><g transform="translate(-118,-102) scale(1,1)"><path fill="none" stroke="#000000" d="M 763.51904296875 279 L 763.51904296875 346" stroke-miterlimit="10"/></g><g transform="translate(-118,-102) scale(1,1)"><g><path fill="none" stroke="none"/><text fill="#000000" stroke="none" font-family="Arial" font-size="13px" font-style="normal" font-weight="bold" text-decoration="none" x="708.161376953125" y="273.5">Debit</text></g></g><g transform="translate(-118,-102) scale(1,1)"><g><path fill="none" stroke="none"/><text fill="#000000" stroke="none" font-family="Arial" font-size="13px" font-style="normal" font-weight="normal" text-decoration="none" x="677" y="297">PK</text></g></g><g transform="translate(-118,-102) scale(1,1)"><g><path fill="none" stroke="none"/><text fill="#000000" stroke="none" font-family="Arial" font-size="13px" font-style="normal" font-weight="normal" text-decoration="none" x="705.05908203125" y="297">id</text></g></g><g transform="translate(-118,-102) scale(1,1)"><g><path fill="none" stroke="none"/><text fill="#000000" stroke="none" font-family="Arial" font-size="13px" font-style="normal" font-weight="normal" text-decoration="none" x="768.51904296875" y="297"></text></g></g><g transform="translate(-118,-102) scale(1,1)"><g><path fill="none" stroke="none"/><text fill="#000000" stroke="none" font-family="Arial" font-size="13px" font-style="normal" font-weight="normal" text-decoration="none" x="677" y="312"></text></g></g><g transform="translate(-118,-102) scale(1,1)"><g><path fill="none" stroke="none"/><text fill="#000000" stroke="none" font-family="Arial" font-size="13px" font-style="normal" font-weight="normal" text-decoration="none" x="705.05908203125" y="312">agent_id</text></g></g><g transform="translate(-118,-102) scale(1,1)"><g><path fill="none" stroke="none"/><text fill="#000000" stroke="none" font-family="Arial" font-size="13px" font-style="normal" font-weight="normal" text-decoration="none" x="768.51904296875" y="312"></text></g></g><g transform="translate(-118,-102) scale(1,1)"><g><path fill="none" stroke="none"/><text fill="#000000" stroke="none" font-family="Arial" font-size="13px" font-style="normal" font-weight="normal" text-decoration="none" x="677" y="327"></text></g></g><g transform="translate(-118,-102) scale(1,1)"><g><path fill="none" stroke="none"/><text fill="#000000" stroke="none" font-family="Arial" font-size="13px" font-style="normal" font-weight="normal" text-decoration="none" x="705.05908203125" y="327">datetime</text></g></g><g transform="translate(-118,-102) scale(1,1)"><g><path fill="none" stroke="none"/><text fill="#000000" stroke="none" font-family="Arial" font-size="13px" font-style="normal" font-weight="normal" text-decoration="none" x="768.51904296875" y="327"></text></g></g><g transform="translate(-118,-102) scale(1,1)"><g><path fill="none" stroke="none"/><text fill="#000000" stroke="none" font-family="Arial" font-size="13px" font-style="normal" font-weight="normal" text-decoration="none" x="677" y="342"></text></g></g><g transform="translate(-118,-102) scale(1,1)"><g><path fill="none" stroke="none"/><text fill="#000000" stroke="none" font-family="Arial" font-size="13px" font-style="normal" font-weight="normal" text-decoration="none" x="705.05908203125" y="342">summ</text></g></g><g transform="translate(-118,-102) scale(1,1)"><g><path fill="none" stroke="none"/><text fill="#000000" stroke="none" font-family="Arial" font-size="13px" font-style="normal" font-weight="normal" text-decoration="none" x="768.51904296875" y="342"></text></g></g><g transform="translate(-118,-102) scale(1,1)"><path fill="#ffffff" stroke="none" d="M 824 144 L 882 144 L 892 154 L 892 182 L 824 182 L 824 144"/></g><g transform="translate(-118,-102) scale(1,1)"><path fill="none" stroke="#000000" d="M 824 144 L 882 144 L 892 154 L 892 182 L 824 182 L 824 144 L 824 144" stroke-miterlimit="10"/></g><g transform="translate(-118,-102) scale(1,1)"><path fill="none" stroke="#000000" d="M 882 144 L 882 154 L 892 154 L 882 144" stroke-miterlimit="10"/></g><g transform="translate(-118,-102) scale(1,1)"><g><path fill="none" stroke="none"/><text fill="#000000" stroke="none" font-family="Arial" font-size="13px" font-style="normal" font-weight="normal" text-decoration="none" x="829" y="162">Мы</text><text fill="#000000" stroke="none" font-family="Arial" font-size="13px" font-style="normal" font-weight="normal" text-decoration="none" x="829" y="175">должны</text></g></g><g transform="translate(-118,-102) scale(1,1)"><path fill="#ffffff" stroke="none" d="M 816 248 L 874 248 L 884 258 L 884 286 L 816 286 L 816 248"/></g><g transform="translate(-118,-102) scale(1,1)"><path fill="none" stroke="#000000" d="M 816 248 L 874 248 L 884 258 L 884 286 L 816 286 L 816 248 L 816 248" stroke-miterlimit="10"/></g><g transform="translate(-118,-102) scale(1,1)"><path fill="none" stroke="#000000" d="M 874 248 L 874 258 L 884 258 L 874 248" stroke-miterlimit="10"/></g><g transform="translate(-118,-102) scale(1,1)"><g><path fill="none" stroke="none"/><text fill="#000000" stroke="none" font-family="Arial" font-size="13px" font-style="normal" font-weight="normal" text-decoration="none" x="821" y="266">Нам</text><text fill="#000000" stroke="none" font-family="Arial" font-size="13px" font-style="normal" font-weight="normal" text-decoration="none" x="821" y="279">должны</text></g></g><g transform="translate(-118,-102) scale(1,1)"><path fill="none" stroke="#000000" d="M 816 264 L 775 264" stroke-miterlimit="10" stroke-dasharray="3"/></g><g transform="translate(-118,-102) scale(1,1)"><path fill="none" stroke="#000000" d="M 776 174 L 823 168" stroke-miterlimit="10" stroke-dasharray="3"/></g><g transform="translate(-118,-102) scale(1,1)"><path fill="none" stroke="#000000" d="M 216 354 L 195 354 M 195 354 A 8 8 0 0 1 187 346 L 187 247" stroke-miterlimit="10"/></g><g transform="translate(-118,-102) scale(1,1)"><path fill="none" stroke="#000000" d="M 187 261 L 194 247" stroke-miterlimit="10"/></g><g transform="translate(-118,-102) scale(1,1)"><path fill="none" stroke="#000000" d="M 187 261 L 180 247" stroke-miterlimit="10"/></g><g transform="translate(-118,-102) scale(1,1)"><path fill="#FFFFFF" stroke="none" d="M 180 269 C 180 265.1340064 183.1340064 262 187 262 C 190.8659936 262 194 265.1340064 194 269 C 194 272.8659936 190.8659936 276 187 276 C 183.1340064 276 180 272.8659936 180 269 Z"/></g><g transform="translate(-118,-102) scale(1,1)"><path fill="none" stroke="#000000" d="M 180 269 C 180 265.1340064 183.1340064 262 187 262 C 190.8659936 262 194 265.1340064 194 269 C 194 272.8659936 190.8659936 276 187 276 C 183.1340064 276 180 272.8659936 180 269 Z" stroke-miterlimit="10"/></g><g transform="translate(-118,-102) scale(1,1)"><path fill="none" stroke="#000000" d="M 209 361 L 209 347" stroke-miterlimit="10"/></g><g transform="translate(-118,-102) scale(1,1)"><g><path fill="none" stroke="none"/><text fill="#000000" stroke="none" font-family="Arial" font-size="13px" font-style="normal" font-weight="normal" text-decoration="none" x="190" y="375"></text></g></g><g transform="translate(-118,-102) scale(1,1)"><g><path fill="none" stroke="none"/><text fill="#000000" stroke="none" font-family="Arial" font-size="13px" font-style="normal" font-weight="normal" text-decoration="none" x="172" y="279"></text></g></g><g transform="translate(-118,-102) scale(1,1)"><path fill="none" stroke="#000000" d="M 440 195 L 440 231 M 440 231 A 8 8 0 0 1 432 239 L 264 239" stroke-miterlimit="10"/></g><g transform="translate(-118,-102) scale(1,1)"><path fill="none" stroke="#000000" d="M 278 239 L 264 232" stroke-miterlimit="10"/></g><g transform="translate(-118,-102) scale(1,1)"><path fill="none" stroke="#000000" d="M 278 239 L 264 246" stroke-miterlimit="10"/></g><g transform="translate(-118,-102) scale(1,1)"><path fill="#FFFFFF" stroke="none" d="M 279 239 C 279 235.1340064 282.1340064 232 286 232 C 289.8659936 232 293 235.1340064 293 239 C 293 242.8659936 289.8659936 246 286 246 C 282.1340064 246 279 242.8659936 279 239 Z"/></g><g transform="translate(-118,-102) scale(1,1)"><path fill="none" stroke="#000000" d="M 279 239 C 279 235.1340064 282.1340064 232 286 232 C 289.8659936 232 293 235.1340064 293 239 C 293 242.8659936 289.8659936 246 286 246 C 282.1340064 246 279 242.8659936 279 239 Z" stroke-miterlimit="10"/></g><g transform="translate(-118,-102) scale(1,1)"><path fill="none" stroke="#000000" d="M 447 202 L 433 202" stroke-miterlimit="10"/></g><g transform="translate(-118,-102) scale(1,1)"><g><path fill="none" stroke="none"/><text fill="#000000" stroke="none" font-family="Arial" font-size="13px" font-style="normal" font-weight="normal" text-decoration="none" x="455" y="227"></text></g></g><g transform="translate(-118,-102) scale(1,1)"><g><path fill="none" stroke="none"/><text fill="#000000" stroke="none" font-family="Arial" font-size="13px" font-style="normal" font-weight="normal" text-decoration="none" x="289" y="260"></text></g></g><g transform="translate(-118,-102) scale(1,1)"><path fill="none" stroke="#000000" d="M 529 181 L 672 181" stroke-miterlimit="10"/></g><g transform="translate(-118,-102) scale(1,1)"><path fill="none" stroke="#000000" d="M 658 181 L 672 188" stroke-miterlimit="10"/></g><g transform="translate(-118,-102) scale(1,1)"><path fill="none" stroke="#000000" d="M 658 181 L 672 174" stroke-miterlimit="10"/></g><g transform="translate(-118,-102) scale(1,1)"><path fill="#FFFFFF" stroke="none" d="M 643 181 C 643 177.1340064 646.1340064 174 650 174 C 653.8659936 174 657 177.1340064 657 181 C 657 184.8659936 653.8659936 188 650 188 C 646.1340064 188 643 184.8659936 643 181 Z"/></g><g transform="translate(-118,-102) scale(1,1)"><path fill="none" stroke="#000000" d="M 643 181 C 643 177.1340064 646.1340064 174 650 174 C 653.8659936 174 657 177.1340064 657 181 C 657 184.8659936 653.8659936 188 650 188 C 646.1340064 188 643 184.8659936 643 181 Z" stroke-miterlimit="10"/></g><g transform="translate(-118,-102) scale(1,1)"><path fill="none" stroke="#000000" d="M 536 174 L 536 188" stroke-miterlimit="10"/></g><g transform="translate(-118,-102) scale(1,1)"><g><path fill="none" stroke="none"/><text fill="#000000" stroke="none" font-family="Arial" font-size="13px" font-style="normal" font-weight="normal" text-decoration="none" x="554" y="173"></text></g></g><g transform="translate(-118,-102) scale(1,1)"><g><path fill="none" stroke="none"/><text fill="#000000" stroke="none" font-family="Arial" font-size="13px" font-style="normal" font-weight="normal" text-decoration="none" x="646" y="173"></text></g></g><g transform="translate(-118,-102) scale(1,1)"><path fill="none" stroke="#000000" d="M 456 195 L 456 256 M 456 256 A 8 8 0 0 0 464 264 L 672 264" stroke-miterlimit="10"/></g><g transform="translate(-118,-102) scale(1,1)"><path fill="none" stroke="#000000" d="M 658 264 L 672 271" stroke-miterlimit="10"/></g><g transform="translate(-118,-102) scale(1,1)"><path fill="none" stroke="#000000" d="M 658 264 L 672 257" stroke-miterlimit="10"/></g><g transform="translate(-118,-102) scale(1,1)"><path fill="#FFFFFF" stroke="none" d="M 643 264 C 643 260.1340064 646.1340064 257 650 257 C 653.8659936 257 657 260.1340064 657 264 C 657 267.8659936 653.8659936 271 650 271 C 646.1340064 271 643 267.8659936 643 264 Z"/></g><g transform="translate(-118,-102) scale(1,1)"><path fill="none" stroke="#000000" d="M 643 264 C 643 260.1340064 646.1340064 257 650 257 C 653.8659936 257 657 260.1340064 657 264 C 657 267.8659936 653.8659936 271 650 271 C 646.1340064 271 643 267.8659936 643 264 Z" stroke-miterlimit="10"/></g><g transform="translate(-118,-102) scale(1,1)"><path fill="none" stroke="#000000" d="M 463 202 L 449 202" stroke-miterlimit="10"/></g><g transform="translate(-118,-102) scale(1,1)"><g><path fill="none" stroke="none"/><text fill="#000000" stroke="none" font-family="Arial" font-size="13px" font-style="normal" font-weight="normal" text-decoration="none" x="471" y="227"></text></g></g><g transform="translate(-118,-102) scale(1,1)"><g><path fill="none" stroke="none"/><text fill="#000000" stroke="none" font-family="Arial" font-size="13px" font-style="normal" font-weight="normal" text-decoration="none" x="646" y="256"></text></g></g><g transform="translate(-118,-102) scale(1,1)"><rect fill="#C0C0C0" stroke="none" x="527" y="447" width="82.68359375" height="32" opacity="0.2"/></g><g transform="translate(-118,-102) scale(1,1)"><rect fill="#ffffff" stroke="none" x="520" y="440" width="82.68359375" height="32"/></g><g transform="translate(-118,-102) scale(1,1)"><path fill="none" stroke="#000000" d="M 520 440 L 602.68359375 440 L 602.68359375 472 L 520 472 L 520 440 Z Z" stroke-miterlimit="10"/></g><g transform="translate(-118,-102) scale(1,1)"><g><path fill="none" stroke="none"/><text fill="#000000" stroke="none" font-family="Arial" font-size="13px" font-style="normal" font-weight="bold" text-decoration="none" x="547.9736328125" y="457.5">Deal</text></g></g><g transform="translate(-118,-102) scale(1,1)"><rect fill="#C0C0C0" stroke="none" x="447" y="447" width="52.341796875" height="32" opacity="0.2"/></g><g transform="translate(-118,-102) scale(1,1)"><rect fill="#ffffff" stroke="none" x="440" y="440" width="52.341796875" height="32"/></g><g transform="translate(-118,-102) scale(1,1)"><path fill="none" stroke="#000000" d="M 440 440 L 492.341796875 440 L 492.341796875 472 L 440 472 L 440 440 Z Z" stroke-miterlimit="10"/></g><g transform="translate(-118,-102) scale(1,1)"><g><path fill="none" stroke="none"/><text fill="#000000" stroke="none" font-family="Arial" font-size="13px" font-style="normal" font-weight="bold" text-decoration="none" x="449.1845703125" y="457.5">Agent</text></g></g><g transform="translate(-118,-102) scale(1,1)"><path fill="#ffffff" stroke="none" d="M 336 464 L 394 464 L 404 474 L 404 502 L 336 502 L 336 464"/></g><g transform="translate(-118,-102) scale(1,1)"><path fill="none" stroke="#000000" d="M 336 464 L 394 464 L 404 474 L 404 502 L 336 502 L 336 464 L 336 464" stroke-miterlimit="10"/></g><g transform="translate(-118,-102) scale(1,1)"><path fill="none" stroke="#000000" d="M 394 464 L 394 474 L 404 474 L 394 464" stroke-miterlimit="10"/></g><g transform="translate(-118,-102) scale(1,1)"><g><path fill="none" stroke="none"/><text fill="#000000" stroke="none" font-family="Arial" font-size="13px" font-style="normal" font-weight="normal" text-decoration="none" x="341" y="482">2-й этап</text></g></g><g transform="translate(-118,-102) scale(1,1)"><path fill="none" stroke="#000000" d="M 406 473 L 439 464" stroke-miterlimit="10" stroke-dasharray="3"/></g><g transform="translate(-118,-102) scale(1,1)"><path fill="#ffffff" stroke="none" d="M 640 456 L 698 456 L 708 466 L 708 494 L 640 494 L 640 456"/></g><g transform="translate(-118,-102) scale(1,1)"><path fill="none" stroke="#000000" d="M 640 456 L 698 456 L 708 466 L 708 494 L 640 494 L 640 456 L 640 456" stroke-miterlimit="10"/></g><g transform="translate(-118,-102) scale(1,1)"><path fill="none" stroke="#000000" d="M 698 456 L 698 466 L 708 466 L 698 456" stroke-miterlimit="10"/></g><g transform="translate(-118,-102) scale(1,1)"><g><path fill="none" stroke="none"/><text fill="#000000" stroke="none" font-family="Arial" font-size="13px" font-style="normal" font-weight="normal" text-decoration="none" x="645" y="474">2-й этап</text></g></g><g transform="translate(-118,-102) scale(1,1)"><path fill="none" stroke="#000000" d="M 604 463 L 639 469" stroke-miterlimit="10" stroke-dasharray="3"/></g></g></svg>